<svg version="1.0" xmlns="http://www.w3.org/2000/svg" width="1024pt" height="1024pt" viewBox="0 0 1024 1024"><g transform="translate(0.000000,1024.000000) scale(0.100000,-0.100000)" fill="#000" stroke="none"><path d="M1383 6603c207-2 547-2 755 0 207 1 37 2-378 2s-585-1-377-2z"/><path d="M3993 6603c208-2 546-2 750 0 205 1 35 2-378 2-412 0-580-1-372-2z"/><path d="M905 6570c-3-6 1-7 9-4 18 7 21 14 7 14-6 0-13-4-16-10z"/><path d="M2680 6525c13-14 26-25 28-25 3 0-5 11-18 25s-26 25-28 25c-3 0 5-11 18-25z"/><path d="M829 6513c-13-16-12-17 4-4s21 21 13 21c-2 0-10-8-17-17z"/><path d="M2725 6466c10-14 19-26 22-26 7 0-17 39-28 46-6 3-3-5 6-20z"/><path d="M1058 6443c12-2 30-2 40 0 9 3-1 5-23 4-22 0-30-2-17-4z"/><path d="M1278 6443c89-2 235-2 325 0 89 1 16 3-163 3s-252-2-162-3z"/><path d="M1992 6443c92-2 245-2 340 0 95 1 20 3-167 3s-265-2-173-3z"/><path d="M3648 6443c7-3 16-2 19 1 4 3-2 6-13 5-11 0-14-3-6-6z"/><path d="M3708 6443c12-2 30-2 40 0 9 3-1 5-23 4-22 0-30-2-17-4z"/><path d="M3778 6443c6-2 18-2 25 0 6 3 1 5-13 5s-19-2-12-5z"/><path d="M3963 6443c82-2 212-2 290 0 78 1 12 3-148 3-159 0-223-2-142-3z"/><path d="M4463 6443c37-2 97-2 135 0 37 2 6 3-68 3s-105-1-67-3z"/><path d="M4708 6443c18-2 45-2 60 0s0 4-33 4-45-2-27-4z"/><path d="M4858 6443c34-2 90-2 125 0 34 2 6 3-63 3s-97-1-62-3z"/><path d="M985 6430c-3-6 1-7 9-4 18 7 21 14 7 14-6 0-13-4-16-10z"/><path d="M2530 6426c0-2 7-7 16-10 8-3 12-2 9 4-6 10-25 14-25 6z"/><path d="M3376 6415c-9-26-7-32 5-12 6 10 9 21 6 23-2 3-7-2-11-11z"/><path d="M5350 6425c0-5 5-17 10-25s10-10 10-5c0 6-5 17-10 25s-10 11-10 5z"/><path d="M3361 6364c0-11 3-14 6-6 3 7 2 16-1 19-3 4-6-2-5-13z"/><path d="M751 6354c0-11 3-14 6-6 3 7 2 16-1 19-3 4-6-2-5-13z"/><path d="M906 6335c-3-9-5-328-4-708l3-692 5 705c3 388 4 706 4 708-1 2-4-4-8-13z"/><path d="M5218 5842c1-279 3-595 5-702 1-107 3 116 5 495 1 380-2 695-6 702-4 6-6-217-4-495z"/><path d="M5383 6265c0-44 2-61 4-37 2 23 2 59 0 80-2 20-4 1-4-43z"/><path d="M2623 6285c0-22 2-30 4-17 2 12 2 30 0 40-3 9-5-1-4-23z"/><path d="M3514 6095c0-126 2-177 3-112 2 65 2 168 0 230-1 62-3 9-3-118z"/><path d="M745 5635c0-374 1-526 2-337 2 189 2 495 0 680-1 185-2 31-2-343z"/><path d="M2623 6170c0-41 2-58 4-37 2 20 2 54 0 75-2 20-4 3-4-38z"/><path d="M3353 6160c0-41 2-58 4-37 2 20 2 54 0 75-2 20-4 3-4-38z"/><path d="M5383 6115c0-38 2-53 4-32 2 20 2 52 0 70-2 17-4 1-4-38z"/><path d="M4710 6090c-9-6-10-10-3-10 6 0 15 5 18 10 8 12 4 12-15 0z"/><path d="M2782 6070c0-14 2-19 5-12 2 6 2 18 0 25-3 6-5 1-5-13z"/><path d="M3927 6072c-10-10-17-35-17-56 0-30 8-45 41-79l42-42-37 43c-44 52-50 111-14 136 12 9 18 16 12 16s-18-8-27-18z"/><path d="M2622 6050c0-19 2-27 5-17 2 9 2 25 0 35-3 9-5 1-5-18z"/><path d="M3353 6040c0-25 2-35 4-22 2 12 2 32 0 45-2 12-4 2-4-23z"/><path d="M4610 6005c-41-41-72-75-69-75 2 0 38 34 79 75s72 75 69 75c-2 0-38-34-79-75z"/><path d="M5382 6010c0-19 2-27 5-17 2 9 2 25 0 35-3 9-5 1-5-18z"/><path d="M2781 6014c0-11 3-14 6-6 3 7 2 16-1 19-3 4-6-2-5-13z"/><path d="M2622 5985c0-16 2-22 5-12 2 9 2 23 0 30-3 6-5-1-5-18z"/><path d="M3068 5983c6-2 18-2 25 0 6 3 1 5-13 5s-19-2-12-5z"/><path d="M3354 5880c0-63 1-89 3-57 2 31 2 83 0 115-2 31-3 5-3-58z"/><path d="M3010 5951c-5-11-9-35-9-53 1-32 2-32 8 7 4 22 10 46 14 53 5 6 6 12 3 12s-10-9-16-19z"/><path d="M5382 5940c0-14 2-19 5-12 2 6 2 18 0 25-3 6-5 1-5-13z"/><path d="M4746 5913c-6-14-5-15 5-6 7 7 10 15 7 18s-9-2-12-12z"/><path d="M4499 5893l-24-28 28 24c25 23 32 31 24 31-2 0-14-12-28-27z"/><path d="M4215 5890c10-11 20-20 23-20s-3 9-13 20-20 20-23 20 3-9 13-20z"/><path d="M4030 5855c19-19 36-35 39-35s-10 16-29 35-36 35-39 35 10-16 29-35z"/><path d="M3230 5866c0-2 8-10 18-17 15-13 16-12 3 4s-21 21-21 13z"/><path d="M3514 5675c0-104 2-146 3-92 2 54 2 139 0 190-1 51-3 7-3-98z"/><path d="M4290 5815c13-14 26-25 28-25 3 0-5 11-18 25s-26 25-28 25c-3 0 5-11 18-25z"/><path d="M4125 5760c27-27 51-50 54-50s-17 23-44 50c-27 28-51 50-54 50s17-22 44-50z"/><path d="M5378 5734c-2-42 0-78 5-81 4-2 7 32 7 76 0 45-2 81-4 81-3 0-6-34-8-76z"/><path d="M4389 5783c-13-16-12-17 4-4 9 7 17 15 17 17 0 8-8 3-21-13z"/><path d="M2688 5733c6-2 18-2 25 0 6 3 1 5-13 5s-19-2-12-5z"/><path d="M4205 5680c21-24 26-25 19-6-3 8-13 17-22 21-13 5-13 2 3-15z"/><path d="M2540 5670c-9-6-10-10-3-10 6 0 15 5 18 10 8 12 4 12-15 0z"/><path d="M2499 5633c-13-16-12-17 4-4s21 21 13 21c-2 0-10-8-17-17z"/><path d="M5382 56e2c0-14 2-19 5-12 2 6 2 18 0 25-3 6-5 1-5-13z"/><path d="M2665 5560c-3-6 1-7 9-4 18 7 21 14 7 14-6 0-13-4-16-10z"/><path d="M3265 5498l-70-73 73 70c39 38 72 71 72 72 0 8-11-2-75-69z"/><path d="M3353 5480c0-25 2-35 4-22 2 12 2 32 0 45-2 12-4 2-4-23z"/><path d="M4099 5493c-13-16-12-17 4-4 9 7 17 15 17 17 0 8-8 3-21-13z"/><path d="M4308 5475c-21-19-34-35-30-35 5 0 23 16 42 35 44 45 36 45-12 0z"/><path d="M3513 5420c0-36 2-50 4-32 2 17 2 47 0 65-2 17-4 3-4-33z"/><path d="M2411 5454c0-11 3-14 6-6 3 7 2 16-1 19-3 4-6-2-5-13z"/><path d="M3003 5425c0-22 2-30 4-17 2 12 2 30 0 40-3 9-5-1-4-23z"/><path d="M5383 5390c0-36 2-50 4-32 2 17 2 47 0 65-2 17-4 3-4-33z"/><path d="M4490 5398c41-45 50-53 50-45 0 2-21 23-47 47l-48 45 45-47z"/><path d="M3352 54e2c0-19 2-27 5-17 2 9 2 25 0 35-3 9-5 1-5-18z"/><path d="M2402 5243c-1-101 1-183 6-183 4 0 6 55 4 122-4 224-8 245-10 61z"/><path d="M4180 5345c-24-25-42-45-39-45s25 20 49 45 42 45 39 45-25-20-49-45z"/><path d="M2678 5373c7-3 16-2 19 1 4 3-2 6-13 5-11 0-14-3-6-6z"/><path d="M3033 5358c11-10 31-18 46-17 24 1 23 2-6 9-18 4-39 11-46 16s-4 1 6-8z"/><path d="M3126 5365c-11-8-15-15-9-15s16 7 23 15c16 19 11 19-14 0z"/><path d="M2766 5337c3-10 9-15 12-12s0 11-7 18c-10 9-11 8-5-6z"/><path d="M2621 5304c0-11 3-14 6-6 3 7 2 16-1 19-3 4-6-2-5-13z"/><path d="M5382 5290c0-19 2-27 5-17 2 9 2 25 0 35-3 9-5 1-5-18z"/><path d="M2781 5294c0-11 3-14 6-6 3 7 2 16-1 19-3 4-6-2-5-13z"/><path d="M3914 5295c-3-8-4-20-2-27 3-7 7-1 10 15 6 29 1 36-8 12z"/><path d="M3514 5125c0-99 2-138 3-87 2 51 2 132 0 180-1 48-3 6-3-93z"/><path d="M2623 5205c0-44 2-61 4-37 2 23 2 59 0 80-2 20-4 1-4-43z"/><path d="M4073 5240c-23-22-39-40-35-40 5 0 26 18 47 40 50 51 43 51-12 0z"/><path d="M3352 5240c0-19 2-27 5-17 2 9 2 25 0 35-3 9-5 1-5-18z"/><path d="M3911 5239c-1-17 29-49 45-49 5 0 1 5-9 11s-22 20-27 32c-6 15-9 17-9 6z"/><path d="M4655 5230c10-11 20-20 23-20s-3 9-13 20-20 20-23 20 3-9 13-20z"/><path d="M4789 5203c-13-16-12-17 4-4 9 7 17 15 17 17 0 8-8 3-21-13z"/><path d="M5382 52e2c0-14 2-19 5-12 2 6 2 18 0 25-3 6-5 1-5-13z"/><path d="M3353 5165c0-22 2-30 4-17 2 12 2 30 0 40-3 9-5-1-4-23z"/><path d="M4728 5183c6-2 18-2 25 0 6 3 1 5-13 5s-19-2-12-5z"/><path d="M5382 5150c0-14 2-19 5-12 2 6 2 18 0 25-3 6-5 1-5-13z"/><path d="M2623 5065c0-33 2-45 4-27s2 45 0 60-4 0-4-33z"/><path d="M5382 51e2c0-14 2-19 5-12 2 6 2 18 0 25-3 6-5 1-5-13z"/><path d="M2457 5063c18-2 50-2 70 0 21 2 7 4-32 4-38 0-55-2-38-4z"/><path d="M3352 5010c0-14 2-19 5-12 2 6 2 18 0 25-3 6-5 1-5-13z"/><path d="M2621 4984c0-11 3-14 6-6 3 7 2 16-1 19-3 4-6-2-5-13z"/><path d="M2615 4949c-4-6-5-12-2-15 2-3 7 2 10 11 7 17 1 20-8 4z"/><path d="M3362 4920c0-14 2-19 5-12 2 6 2 18 0 25-3 6-5 1-5-13z"/><path d="M3520 4934c0-6 7-19 16-30 14-18 14-18 3 6-14 31-19 36-19 24z"/><path d="M752 4910c0-14 2-19 5-12 2 6 2 18 0 25-3 6-5 1-5-13z"/><path d="M2771 4914c0-11 3-14 6-6 3 7 2 16-1 19-3 4-6-2-5-13z"/><path d="M5371 4904c0-11 3-14 6-6 3 7 2 16-1 19-3 4-6-2-5-13z"/><path d="M5185 4884c-9-15-12-23-6-20 11 7 35 46 28 46-3 0-12-12-22-26z"/><path d="M945 4870c10-11 20-20 23-20s-3 9-13 20-20 20-23 20 3-9 13-20z"/><path d="M3371 4880c0-14 28-72 29-59 0 4-7 22-15 40-8 19-14 27-14 19z"/><path d="M761 4875c0-5 8-26 19-45s19-30 19-25c0 6-8 26-19 45s-19 31-19 25z"/><path d="M3550 4876c0-2 12-12 28-21l27-18-19 21c-17 20-36 29-36 18z"/><path d="M5130 4840c-9-6-10-10-3-10 6 0 15 5 18 10 8 12 4 12-15 0z"/><path d="M5325 4808c-16-24-22-38-14-31 15 12 53 73 46 73-2 0-17-19-32-42z"/><path d="M2699 4773l-24-28 28 24c25 23 32 31 24 31-2 0-14-12-28-27z"/><path d="M820 4766c0-2 8-10 18-17 15-13 16-12 3 4s-21 21-21 13z"/><path d="M2635 4714l-30-26 33 22c17 12 32 23 32 26 0 7-4 5-35-22z"/><path d="M5204 4694c-18-14-18-15 4-4 12 6 22 13 22 15 0 8-5 6-26-11z"/><path d="M3550 4680c8-5 20-10 25-10 6 0 3 5-5 10s-19 10-25 10c-5 0-3-5 5-10z"/><path d="M1393 4663c214-2 560-2 770 0 210 1 36 2-388 2s-595-1-382-2z"/><path d="M3972 4663c201-2 534-2 740 0 205 1 40 2-367 2s-575-1-373-2z"/><path d="M5103 4663c9-2 23-2 30 0 6 3-1 5-18 5-16 0-22-2-12-5z"/><path d="M6658 4393c6-2 18-2 25 0 6 3 1 5-13 5s-19-2-12-5z"/><path d="M6618 4383c7-3 16-2 19 1 4 3-2 6-13 5-11 0-14-3-6-6z"/><path d="M4620 4376c0-2 8-10 18-17 15-13 16-12 3 4s-21 21-21 13z"/><path d="M4460 4351c-5-11-10-30-9-43 1-18 3-17 8 8 4 17 11 36 15 42 4 7 5 12 2 12s-10-9-16-19z"/><path d="M6750 4361c0-6 4-13 10-16s7 1 4 9c-7 18-14 21-14 7z"/><path d="M5498 4343c7-3 16-2 19 1 4 3-2 6-13 5-11 0-14-3-6-6z"/><path d="M5072 4310c0-14 2-19 5-12 2 6 2 18 0 25-3 6-5 1-5-13z"/><path d="M6562 43e2c0-19 2-27 5-17 2 9 2 25 0 35-3 9-5 1-5-18z"/><path d="M4775 3910c0-228 1-322 2-208 2 115 2 301 0 415-1 115-2 21-2-207z"/><path d="M6772 4295c0-16 2-22 5-12 2 9 2 23 0 30-3 6-5-1-5-18z"/><path d="M4661 4294c0-11 3-14 6-6 3 7 2 16-1 19-3 4-6-2-5-13z"/><path d="M5630 4296c0-2 8-10 18-17 15-13 16-12 3 4s-21 21-21 13z"/><path d="M5676 4257c3-10 9-15 12-12s0 11-7 18c-10 9-11 8-5-6z"/><path d="M7688 4185c-2-46 0-81 4-77 9 9 15 162 6 162-3 0-8-38-10-85z"/><path d="M7753 4263c20-2 54-2 75 0 20 2 3 4-38 4s-58-2-37-4z"/><path d="M6751 4237c-13-21-12-21 5-5 10 10 16 20 13 22-3 3-11-5-18-17z"/><path d="M5073 4180c0-41 2-58 4-37 2 20 2 54 0 75-2 20-4 3-4-38z"/><path d="M5710 4210c6-11 13-20 16-20 2 0 0 9-6 20s-13 20-16 20c-2 0 0-9 6-20z"/><path d="M5438 4203c7-3 16-2 19 1 4 3-2 6-13 5-11 0-14-3-6-6z"/><path d="M7853 4150c0-30 2-43 4-27 2 15 2 39 0 55-2 15-4 2-4-28z"/><path d="M5491 4188c2-2 20-16 39-33l35-30-29 33c-17 17-34 32-40 32-5 0-7-1-5-2z"/><path d="M6218 4123c7-3 16-2 19 1 4 3-2 6-13 5-11 0-14-3-6-6z"/><path d="M7258 4123c7-3 16-2 19 1 4 3-2 6-13 5-11 0-14-3-6-6z"/><path d="M8328 4123c7-3 16-2 19 1 4 3-2 6-13 5-11 0-14-3-6-6z"/><path d="M9205 4120c3-5 8-10 11-10 2 0 4 5 4 10 0 6-5 10-11 10-5 0-7-4-4-10z"/><path d="M3768 4113c7-3 16-2 19 1 4 3-2 6-13 5-11 0-14-3-6-6z"/><path d="M4488 4113c6-2 18-2 25 0 6 3 1 5-13 5s-19-2-12-5z"/><path d="M4573 4113c9-2 25-2 35 0 9 3 1 5-18 5s-27-2-17-5z"/><path d="M6658 4113c6-2 18-2 25 0 6 3 1 5-13 5s-19-2-12-5z"/><path d="M6728 4113c7-3 16-2 19 1 4 3-2 6-13 5-11 0-14-3-6-6z"/><path d="M6880 3780v-340l78 2 77 2-73 3-73 4 3 334c2 184 0 335-4 335-5 0-8-153-8-340z"/><path d="M8838 4113c7-3 16-2 19 1 4 3-2 6-13 5-11 0-14-3-6-6z"/><path d="M8977 41e2c3-11 7-20 9-20s4 9 4 20-4 20-9 20-7-9-4-20z"/><path d="M9138 4113c6-2 18-2 25 0 6 3 1 5-13 5s-19-2-12-5z"/><path d="M6290 4106c0-2 7-7 16-10 8-3 12-2 9 4-6 10-25 14-25 6z"/><path d="M7648 4103c7-3 16-2 19 1 4 3-2 6-13 5-11 0-14-3-6-6z"/><path d="M7922 4103c56-4 57-5 61-36s4-31 5 6l2 37-62-2-63-2 57-3z"/><path d="M8192 4071c-22-16-43-35-47-41-5-9 73 46 94 66 16 15-13-1-47-25z"/><path d="M3934 4068l-19-23 23 19c21 18 27 26 19 26-2 0-12-10-23-22z"/><path d="M5753 4030c0-36 2-50 4-32 2 17 2 47 0 65-2 17-4 3-4-33z"/><path d="M3881 4064c0-11 3-14 6-6 3 7 2 16-1 19-3 4-6-2-5-13z"/><path d="M4275 4060c10-11 20-20 23-20s-3 9-13 20-20 20-23 20 3-9 13-20z"/><path d="M6384 4037c22-23 47-51 54-62 11-17 11-17 1 5-12 26-78 1e2-90 1e2-3 0 12-19 35-43z"/><path d="M6581 4064c0-11 3-14 6-6 3 7 2 16-1 19-3 4-6-2-5-13z"/><path d="M7420 4076c0-2 8-10 18-17 15-13 16-12 3 4s-21 21-21 13z"/><path d="M8620 4045c19-19 36-35 39-35s-10 16-29 35-36 35-39 35 10-16 29-35z"/><path d="M5072 4050c0-14 2-19 5-12 2 6 2 18 0 25-3 6-5 1-5-13z"/><path d="M5913 4048c-11-13-24-30-28-38-8-16-6-14 34 33 14 15 22 27 19 27-2 0-14-10-25-22z"/><path d="M6583 3965c0-44 2-61 4-37 2 23 2 59 0 80-2 20-4 1-4-43z"/><path d="M4306 4017c3-10 9-15 12-12s0 11-7 18c-10 9-11 8-5-6z"/><path d="M5072 4e3c0-14 2-19 5-12 2 6 2 18 0 25-3 6-5 1-5-13z"/><path d="M8378 4003c12-2 30-2 40 0 9 3-1 5-23 4-22 0-30-2-17-4z"/><path d="M3721 3984c0-11 3-14 6-6 3 7 2 16-1 19-3 4-6-2-5-13z"/><path d="M5561 3973c-10-26-10-27 4-9 8 11 15 23 15 28 0 15-7 8-19-19z"/><path d="M6133 3993c9-2 25-2 35 0 9 3 1 5-18 5s-27-2-17-5z"/><path d="M7590 3989c0-5 9-9 20-9s20 2 20 4-9 6-20 9-20 1-20-4z"/><path d="M8677 3965c9-19 18-33 21-31 4 5-26 66-33 66-3 0 3-16 12-35z"/><path d="M7672 3984c16-5 18-27 21-222l3-217-1 220c0 212-1 220-20 222-15 1-16 1-3-3z"/><path d="M7888 3983c12-2 30-2 40 0 9 3-1 5-23 4-22 0-30-2-17-4z"/><path d="M83e2 3980c-9-6-10-10-3-10 6 0 15 5 18 10 8 12 4 12-15 0z"/><path d="M7218 3973c7-3 16-2 19 1 4 3-2 6-13 5-11 0-14-3-6-6z"/><path d="M81e2 3959c-7-11-10-23-7-25 2-2 9 7 15 21 14 30 7 33-8 4z"/><path d="M92e2 3970c0-5 5-10 10-10 6 0 10 5 10 10 0 6-4 10-10 10-5 0-10-4-10-10z"/><path d="M7094 3938l-29-33 33 29c17 17 32 31 32 33 0 8-8 1-36-29z"/><path d="M7852 3945c0-16 2-22 5-12 2 9 2 23 0 30-3 6-5-1-5-18z"/><path d="M9118 3963c6-2 18-2 25 0 6 3 1 5-13 5s-19-2-12-5z"/><path d="M3722 3940c0-14 2-19 5-12 2 6 2 18 0 25-3 6-5 1-5-13z"/><path d="M4331 3944c0-11 3-14 6-6 3 7 2 16-1 19-3 4-6-2-5-13z"/><path d="M5741 3944c0-11 3-14 6-6 3 7 2 16-1 19-3 4-6-2-5-13z"/><path d="M7280 3956c0-2 8-10 18-17 15-13 16-12 3 4s-21 21-21 13z"/><path d="M7492 3940c0-14 2-19 5-12 2 6 2 18 0 25-3 6-5 1-5-13z"/><path d="M6450 3945c0-5 5-17 10-25s10-10 10-5c0 6-5 17-10 25s-10 11-10 5z"/><path d="M8259 3933c-13-16-12-17 4-4 9 7 17 15 17 17 0 8-8 3-21-13z"/><path d="M4151 3916c7-15 15-23 17-16 3 7-3 19-13 28-15 16-16 15-4-12z"/><path d="M5074 3785c0-88 2-123 3-77 2 46 2 118 0 160-1 42-3 5-3-83z"/><path d="M9035 3920c-3-5-1-10 4-10 6 0 11 5 11 10 0 6-2 10-4 10-3 0-8-4-11-10z"/><path d="M6286 3907c3-10 9-15 12-12s0 11-7 18c-10 9-11 8-5-6z"/><path d="M8076 3895c-3-9-6-26-5-38 1-14 4-9 9 13 9 37 7 52-4 25z"/><path d="M5720 3893c0-6-19-32-42-59s-29-38-14-24c36 33 70 79 62 87-3 4-6 2-6-4z"/><path d="M5996 3885c-9-26-7-32 5-12 6 10 9 21 6 23-2 3-7-2-11-11z"/><path d="M6472 3875c0-16 2-22 5-12 2 9 2 23 0 30-3 6-5-1-5-18z"/><path d="M9010 3879c-7-11-10-23-7-25 2-2 9 7 15 21 14 30 7 33-8 4z"/><path d="M4171 3864c0-11 3-14 6-6 3 7 2 16-1 19-3 4-6-2-5-13z"/><path d="M5313 3873c26-2 68-2 95 0 26 2 4 3-48 3s-74-1-47-3z"/><path d="M7051 3864c0-11 3-14 6-6 3 7 2 16-1 19-3 4-6-2-5-13z"/><path d="M8231 3864c0-11 3-14 6-6 3 7 2 16-1 19-3 4-6-2-5-13z"/><path d="M8551 3864c0-11 3-14 6-6 3 7 2 16-1 19-3 4-6-2-5-13z"/><path d="M8712 3860c0-14 2-19 5-12 2 6 2 18 0 25-3 6-5 1-5-13z"/><path d="M3891 3854c0-11 3-14 6-6 3 7 2 16-1 19-3 4-6-2-5-13z"/><path d="M7331 3854c0-11 3-14 6-6 3 7 2 16-1 19-3 4-6-2-5-13z"/><path d="M6582 3830c0-19 2-27 5-17 2 9 2 25 0 35-3 9-5 1-5-18z"/><path d="M7853 3790c0-36 2-50 4-32 2 17 2 47 0 65-2 17-4 3-4-33z"/><path d="M6313 3780c0-36 2-50 4-32 2 17 2 47 0 65-2 17-4 3-4-33z"/><path d="M6482 3820c0-14 2-19 5-12 2 6 2 18 0 25-3 6-5 1-5-13z"/><path d="M7044 3640c0-113 2-159 3-102 2 56 2 148 0 205-1 56-3 10-3-103z"/><path d="M7504 3710c0-74 1-105 3-67 2 37 2 97 0 135-2 37-3 6-3-68z"/><path d="M8333 3833c43-2 110-2 150 0 40 1 5 3-78 3-82 0-115-2-72-3z"/><path d="M5811 3804c0-11 3-14 6-6 3 7 2 16-1 19-3 4-6-2-5-13z"/><path d="M5983 3770c0-30 2-43 4-27 2 15 2 39 0 55-2 15-4 2-4-28z"/><path d="M8063 3770c0-25 2-35 4-22 2 12 2 32 0 45-2 12-4 2-4-23z"/><path d="M3723 3765c0-22 2-30 4-17 2 12 2 30 0 40-3 9-5-1-4-23z"/><path d="M6483 3755c0-22 2-30 4-17 2 12 2 30 0 40-3 9-5-1-4-23z"/><path d="M8721 3774c0-11 3-14 6-6 3 7 2 16-1 19-3 4-6-2-5-13z"/><path d="M5812 3755c0-16 2-22 5-12 2 9 2 23 0 30-3 6-5-1-5-18z"/><path d="M6583 3735c0-22 2-30 4-17 2 12 2 30 0 40-3 9-5-1-4-23z"/><path d="M3891 3744c0-11 3-14 6-6 3 7 2 16-1 19-3 4-6-2-5-13z"/><path d="M5550 3750c-8-5-10-10-5-10 6 0 17 5 25 10s11 10 5 10c-5 0-17-5-25-10z"/><path d="M8695 3730l-30-8 27-1c15 0 30 4 33 9 3 6 5 9 3 9-2-1-16-5-33-9z"/><path d="M8518 3723c7-3 16-2 19 1 4 3-2 6-13 5-11 0-14-3-6-6z"/><path d="M8578 3723c18-2 45-2 60 0s0 4-33 4-45-2-27-4z"/><path d="M3721 3704c0-11 3-14 6-6 3 7 2 16-1 19-3 4-6-2-5-13z"/><path d="M3893 3645c0-44 2-61 4-37 2 23 2 59 0 80-2 20-4 1-4-43z"/><path d="M7852 3670c-2-56 16-1e2 40-1e2 7 0 3 6-8 14-14 11-21 31-25 78l-6 63-1-55z"/><path d="M8232 37e2c0-14 2-19 5-12 2 6 2 18 0 25-3 6-5 1-5-13z"/><path d="M5822 3680c0-14 2-19 5-12 2 6 2 18 0 25-3 6-5 1-5-13z"/><path d="M6472 3680c0-14 2-19 5-12 2 6 2 18 0 25-3 6-5 1-5-13z"/><path d="M6296 3675c-9-26-7-32 5-12 6 10 9 21 6 23-2 3-7-2-11-11z"/><path d="M6584 3595c0-55 1-76 3-47s2 74 0 1e2-3 2-3-53z"/><path d="M8071 3674c0-11 3-14 6-6 3 7 2 16-1 19-3 4-6-2-5-13z"/><path d="M8240 3664c0-6 7-19 16-30 14-18 14-18 3 6-14 31-19 36-19 24z"/><path d="M6458 3635c-3-11-9-29-13-40-3-11 1-7 10 8 9 16 15 33 12 40-2 6-6 3-9-8z"/><path d="M8540 3623c0-5 38-8 85-8s85 3 85 8c0 4-38 7-85 7s-85-3-85-7z"/><path d="M3723 3580c0-25 2-35 4-22 2 12 2 32 0 45-2 12-4 2-4-23z"/><path d="M6020 3616c0-2 8-10 18-17 15-13 16-12 3 4s-21 21-21 13z"/><path d="M6254 3598l-19-23 23 19c12 11 22 21 22 23 0 8-8 2-26-19z"/><path d="M5073 3565c0-27 2-38 4-22 2 15 2 37 0 50-2 12-4 0-4-28z"/><path d="M8270 3606c0-2 8-10 18-17 15-13 16-12 3 4s-21 21-21 13z"/><path d="M5850 3593c0-6 9-21 21-34l20-24-17 30c-24 39-24 40-24 28z"/><path d="M8510 3579c-22-18-22-19-3-10 12 6 25 16 28 21 9 15 3 12-25-11z"/><path d="M7502 3550c0-14 2-19 5-12 2 6 2 18 0 25-3 6-5 1-5-13z"/><path d="M7983 3505c0-38 2-53 4-32 2 20 2 52 0 70-2 17-4 1-4-38z"/><path d="M6148 3553c7-3 16-2 19 1 4 3-2 6-13 5-11 0-14-3-6-6z"/><path d="M8408 3543c6-2 18-2 25 0 6 3 1 5-13 5s-19-2-12-5z"/><path d="M5910 3505c13-14 26-25 28-25 3 0-5 11-18 25s-26 25-28 25c-3 0 5-11 18-25z"/><path d="M8165 35e2c10-11 20-20 23-20s-3 9-13 20-20 20-23 20 3-9 13-20z"/><path d="M3892 3480c0-19 2-27 5-17 2 9 2 25 0 35-3 9-5 1-5-18z"/><path d="M6364 3488l-19-23 23 19c21 18 27 26 19 26-2 0-12-10-23-22z"/><path d="M7710 3506c0-2 8-10 18-17 15-13 16-12 3 4s-21 21-21 13z"/><path d="M4771 3474c0-11 3-14 6-6 3 7 2 16-1 19-3 4-6-2-5-13z"/><path d="M7502 3465c0-16 2-22 5-12 2 9 2 23 0 30-3 6-5-1-5-18z"/><path d="M8599 3473c-13-16-12-17 4-4s21 21 13 21c-2 0-10-8-17-17z"/><path d="M8250 3445c14-8 30-14 35-14 6 0-1 6-15 14s-29 14-35 14c-5 0 1-6 15-14z"/><path d="M3777 3443c18-2 50-2 70 0 21 2 7 4-32 4-38 0-55-2-38-4z"/><path d="M4253 3443c15-2 37-2 50 0 12 2 0 4-28 4-27 0-38-2-22-4z"/><path d="M4558 3443c18-2 45-2 60 0s0 4-33 4-45-2-27-4z"/><path d="M4813 3443c9-2 25-2 35 0 9 3 1 5-18 5s-27-2-17-5z"/><path d="M4883 3443c9-2 23-2 30 0 6 3-1 5-18 5-16 0-22-2-12-5z"/><path d="M5078 3443c7-3 16-2 19 1 4 3-2 6-13 5-11 0-14-3-6-6z"/><path d="M5128 3443c7-3 16-2 19 1 4 3-2 6-13 5-11 0-14-3-6-6z"/><path d="M5208 3443c6-2 18-2 25 0 6 3 1 5-13 5s-19-2-12-5z"/><path d="M6275 3440c-3-6 1-7 9-4 18 7 21 14 7 14-6 0-13-4-16-10z"/><path d="M6623 3443c26-2 67-2 90 0s2 3-48 3c-49 0-68-1-42-3z"/><path d="M7443 3443c9-2 25-2 35 0 9 3 1 5-18 5s-27-2-17-5z"/><path d="M7805 3440c11-5 27-9 35-9 9 0 8 4-5 9-11 5-27 9-35 9-9 0-8-4 5-9z"/><path d="M7950 3440c0-5 5-10 11-10 5 0 7 5 4 10-3 6-8 10-11 10-2 0-4-4-4-10z"/><path d="M8953 3443c9-2 23-2 30 0 6 3-1 5-18 5-16 0-22-2-12-5z"/><path d="M6068 3423c7-3 16-2 19 1 4 3-2 6-13 5-11 0-14-3-6-6z"/></g></svg>