<svg version="1.0" xmlns="http://www.w3.org/2000/svg" width="1024" height="1024" viewBox="0 0 1024 1024"><g fill="#10b981"><path d="M607.3 682c-13.7-2.9-23-13-25.4-27.7-2.8-17.2 4.1-33.7 16.9-40.2 8.4-4.3 24.6-4.5 32.4-.5 5.6 2.9 11.5 9.3 14.4 15.7 2.6 5.6 2.8 7.3 2.9 17.2.0 10.5-.2 11.4-3.3 17.7-5.6 11.4-14.5 17.3-27.7 18.2-3.3.3-7.9.1-10.2-.4zm16.5-16.7c4.8-3.5 6.7-8.7 6.7-18.8.0-7-.4-9.9-2-13-5.6-11.1-20.5-11.4-26.4-.7-4.3 8-3.9 22.5.9 29.2 4.3 6 14.8 7.7 20.8 3.3z"/><path d="M832.8 682c-10.9-1.9-20.7-10.5-24.4-21.2-2.7-7.9-2.5-22.5.5-30 2.6-6.6 8.9-13.6 15.2-16.9 6-3.1 20.5-3.9 27.7-1.5 12.8 4.3 21.4 19 20.8 35.6l-.1 3.5-24.2.3-24.3.2v2.3c0 3.6 4.2 9.9 8 12.1 6.8 4 19.9 1.8 21.6-3.6.5-1.5 1.8-1.8 9-1.8 8.4.0 8.5.0 7.9 2.3-4.1 13.7-20.5 21.8-37.7 18.7zm22-45.7c-2.3-8.5-8.5-12.9-17-12.1-5.5.6-10.1 4-12.4 9.5-2.8 6.4-3 6.3 14.5 6.3h15.9l-1-3.7z"/><path d="M372.7 680.3c-.3-.4-.5-16-.5-34.6V612h8.5 8.6l-.5 4.5c-.3 2.5-.2 4.5.1 4.5.4.0 1.8-1.2 3.2-2.6 4.5-4.9 9.7-6.9 17.9-6.9 5.9.0 8.5.5 12.3 2.4 10.9 5.3 12.8 12 12.5 43.7l-.3 22.9-8.2.3-8.3.3v-20.3c0-22.3-.7-26.7-5-31-2.5-2.4-3.6-2.8-8.8-2.8-5 0-6.6.4-9 2.5-1.6 1.3-3.4 3.7-4.1 5.2-.6 1.7-1.2 11.3-1.3 24.3l-.3 21.5-8.2.3c-4.5.1-8.4-.1-8.6-.5z"/><path d="M448 646.5V612h8 8v34.5V681h-8-8v-34.5z"/><path d="M477 634v-47h8.5 8.5v47 47h-8.5-8.4l-.1-47z"/><path d="M507 634.5V588h17.8c26.5.0 35.1 1.9 42.7 9.5 5.2 5.3 7.8 11.5 8.3 20.6.6 9.7-1.4 16.1-7 22.4-7.2 8.2-16.8 11.5-33.3 11.5H526v14.5V681h-9.5-9.5v-46.5zm43.8-1.3c8.8-6.4 8.8-19.9-.1-26.6-2.4-1.8-4.5-2.2-13.7-2.4l-10.9-.4-.3 3.4c-.2 1.8-.2 9.1.0 16.2l.3 12.8 10.7-.3c9.3-.4 11.2-.7 14-2.7z"/><path d="M658.1 646.6l.1-34.6h8.4 8.4v34.4 34.3l-8.5.2-8.6.2.2-34.5z"/><path d="M688 646.5V612h8 8v5.2 5.2l3.8-3.6c5-4.9 9.5-6.9 16.1-7.5 11.2-1 19 3 23.6 12.2l3 6V655v25.5l-8.2.3-8.1.3-.4-22.3c-.3-23.9-.9-26.6-6-30.2-3.5-2.5-12.9-2.1-16.3.6-5.7 4.4-6.5 8.2-6.5 31.1V681h-8.5-8.5v-34.5z"/><path d="M778.8 679.7c-3.2-1.5-6.6-4.5-8.1-7.2-.8-1.3-1.4-10.1-1.7-24l-.5-22-4.7-.3-4.8-.3v-6.5-6.4h5 5v-8-8h8.5 8.5v8 8h6.5 6.5v6.5 6.5h-6.5-6.5l-.1 3.3c-.3 7.1.2 32.3.7 34 .7 2.4 4.1 3.9 8.6 3.9l3.9-.1-.3 6.7-.3 6.7-8.5.2c-4.9.1-9.6-.3-11.2-1z"/><path d="M882.5 646.5V612h8.3 8.2v5.6 5.7l4-4.6c4.1-4.6 7.2-6.2 14.5-7.1l4-.5v8.4c0 8.1-.1 8.4-2.1 7.9-3.3-.9-10.6 1.5-13.7 4.4-5.5 5.1-5.8 6.6-6 28.7l-.2 20.5H891h-8.5v-34.5z"/><path d="M452.3 603.3c-1.2-.2-3.3-1.5-4.7-2.8-3.2-2.9-3.6-9.1-.8-12.4 2.3-3 8.5-4.3 13.1-2.8 8 2.6 9 14.2 1.5 17.3-3.3 1.4-4.9 1.5-9.1.7z"/><path d="M665.5 603.2c-7.9-1.4-10.8-5.7-8.4-12.6 1.2-3.5 2-4.3 5.7-5.4 5.4-1.8 12 0 14 3.8 1.5 3 .9 9.7-1.1 11.7-1.6 1.7-7.3 3.1-10.2 2.5z"/><path d="M97.3 557.2c-9.8-3.5-16.1-9.3-20.6-19-2.2-4.7-2.2-4.7-2.2-77.7v-73l2.6-5.6c4.9-10.3 13.5-16.8 25.1-18.9 3.7-.7 31.2-1 78.5-.8l72.8.3 5.6 2.6c7.2 3.4 13.4 9.6 16.7 16.8 2.6 5.4 2.7 6.3 3 27.1.3 23.5-.1 25.4-5.2 27.8-3 1.5-6 1.1-9.1-1.2-1.9-1.3-2-2.9-2.5-23.4-.6-24.5-.7-25-8-30l-3.3-2.2h-74.6-74.6l-3.6 2.4c-7.3 5-7 1.4-6.7 79.3l.3 69.8 2.4 3.3c1.3 1.9 4.4 4.2 6.9 5.3 4.3 1.9 7.2 1.9 77.1 1.7 70.6-.3 72.7-.4 75.9-2.3 1.8-1.1 4.3-3.6 5.5-5.5 2-3.2 2.2-5 2.5-23.7l.3-20.3 2.6-2c3.4-2.7 7.6-2.5 11 .4l2.8 2.4v20.9c0 18.1-.2 21.4-1.9 25.8-2.6 6.6-11.2 15.6-17.9 18.7l-5.2 2.3-75.5.2c-70.7.3-75.8.2-80.7-1.5z"/><path d="M360.7 557.9c-9.7-2.3-18.2-9.4-22.5-18.8l-2.6-5.6-.1-31c-.1-17-.3-32.1-.3-33.4-.2-2.2-1.7-1-12 9.2-9.9 9.7-12.4 11.7-14.9 11.7-4.8.0-8.3-3.4-8.3-8 0-3.4.7-4.5 6-9.7 3.3-3.2 6-6.2 6-6.6.0-.5-8.9-.7-19.8-.5l-19.9.3-4.9 3c-3.5 2.2-5.7 4.6-7.8 8.5-3 5.4-3 5.5-3 23.2l-.1 17.8h-8.3-8.4l.4-20.2.3-20.3 3.2-6.7c5.2-11.1 14.7-18.6 26.3-20.8 2.9-.5 13.6-1 23.9-1l18.6-.1-5.6-5.2c-8.3-7.7-9.4-11.1-5.1-15.9 1.9-2.2 7.4-3.3 9.8-2 1.1.6 6.6 5.8 12.4 11.6 5.7 5.8 10.7 10.6 11 10.6s.5-13.6.5-30.3l.1-30.2 2.6-5.7c3.4-7.4 10.3-14.1 17.6-17l5.7-2.3 72-.3c75.1-.3 79.8-.1 87.8 3.9 5.6 2.9 11.5 9.3 14.6 15.8l2.6 5.6v73 73l-2.6 5.5c-3.4 7.1-9.4 13.1-16.7 16.7l-5.7 2.8-74.5.2c-41.5.1-76.2-.3-78.3-.8zm153-18.2c1.8-.9 4.4-3.7 5.8-6.1l2.5-4.3-.2-69.9-.3-69.9-2.4-3.2c-4.9-6.6-1.3-6.3-82.3-6.3-83 0-78-.5-82.5 8l-2.3 4.3v67.9c0 55.4.3 68.5 1.4 71.1 1.7 4 6.4 8.5 10.2 9.7 1.6.5 35.3.8 74.9.7 66.6-.2 72.2-.3 75.2-2z"/><path d="M393.7 504c-2.9-2.3-4.2-6.3-2.8-8.8.5-.9 8.1-9.1 17-18 8.9-9 16.1-16.7 16.1-17.1.0-.4-7.2-7.9-16-16.7-8.8-8.7-16.5-17.1-17.1-18.6-2.1-5.2 3.9-11.8 9.5-10.4 1.3.3 8.8 7.1 16.7 15.1s15.6 15.5 17 16.5l2.6 1.9 16.3-16.4c10.8-10.8 17.3-16.6 19.1-17 5.9-1.3 12 4.6 10 9.7-.5 1.2-8.1 9.6-17 18.5-8.9 8.8-16.1 16.7-16.1 17.4.0.6 7.3 8.5 16.2 17.5s16.6 17.3 17 18.4c1.7 4.5-3 10-8.6 10-2.5.0-5.7-2.7-20-17l-17.1-16.9-17.1 16.9c-18.5 18.5-20.1 19.4-25.7 15z"/></g></svg>